<svg
  className="project-card__svg"
  width="23"
  height="21"
  viewBox="0 0 23 21"
  fill="none"
  xmlns="http://www.w3.org/2000/svg"
>
  <path
    d="M11.5 1.3125C5.94316 1.3125 1.4375 5.42637 1.4375 10.5C1.4375 15.5736 5.94316 19.6875 11.5 19.6875C17.0568 19.6875 21.5625 15.5736 21.5625 10.5C21.5625 5.42637 17.0568 1.3125 11.5 1.3125ZM11.5 18.1289C6.88652 18.1289 3.14453 14.7123 3.14453 10.5C3.14453 6.2877 6.88652 2.87109 11.5 2.87109C16.1135 2.87109 19.8555 6.2877 19.8555 10.5C19.8555 14.7123 16.1135 18.1289 11.5 18.1289Z"
    fill="#292929"
  />
  <path
    d="M15.4239 13.0963L12.221 10.9819V5.90625C12.221 5.81602 12.1401 5.74219 12.0413 5.74219H10.9609C10.8621 5.74219 10.7812 5.81602 10.7812 5.90625V11.5541C10.7812 11.6074 10.8082 11.6566 10.8554 11.6874L14.5704 14.1606C14.6513 14.214 14.7636 14.1976 14.822 14.1258L15.4644 13.326C15.5228 13.2501 15.5048 13.1476 15.4239 13.0963V13.0963Z"
    fill="#292929"
  />
</svg>