<svg
  width="34"
  height="33"
  viewBox="0 0 34 33"
  fill="none"
  xmlns="http://www.w3.org/2000/svg"
>
  <g clipPath="url(#clip0)">
    <path
      d="M33.748 13.8751L33.748 13.875L29.4065 11.0814V1.74382C29.4065 1.44197 29.1544 1.19727 28.8434 1.19727H5.15586C4.84487 1.19727 4.59275 1.44197 4.59275 1.74382V11.082L0.251974 13.875L0.252049 13.8751C0.100234 13.973 0 14.1403 0 14.3305V31.2561C0 31.5579 0.252124 31.8026 0.563113 31.8026H33.4369C33.7479 31.8026 34 31.5579 34 31.2561V14.3305C34 14.1403 33.8998 13.973 33.748 13.8751ZM4.59275 15.7865L2.82645 14.8771H4.59275V15.7865ZM1.12623 15.2391L14.0759 21.9063L1.12623 30.2377V15.2391ZM16.9998 21.3365L31.5684 30.7095H2.43122L16.9998 21.3365ZM19.9238 21.9064L32.8737 15.2391V30.238L19.9238 21.9064ZM29.4065 14.8771H31.1736L29.4065 15.7868V14.8771ZM31.5684 13.784H29.4065V12.3928L31.5684 13.784ZM28.2803 2.29037V16.3667L18.8555 21.219L17.3108 20.2252C17.1223 20.1039 16.8772 20.1039 16.6886 20.2252L15.1442 21.2189L5.71897 16.3663V2.29037H28.2803ZM4.59275 13.784H2.43175L4.59275 12.3935V13.784Z"
      fill="black"
    />
    <path
      d="M16.9997 15.5708H21.4862C21.7971 15.5708 22.0493 15.3261 22.0493 15.0243C22.0493 14.7224 21.7971 14.4777 21.4862 14.4777H16.9997C14.8364 14.4777 13.0764 12.7695 13.0764 10.6698V10.5085C13.0764 8.40882 14.8364 6.7006 16.9997 6.7006C19.1631 6.7006 20.923 8.40882 20.923 10.5085V10.9117C20.923 11.3662 20.5421 11.7361 20.0737 11.7361C19.6054 11.7361 19.2244 11.3663 19.2244 10.9117V10.1457C19.2244 8.84388 18.1332 7.78473 16.792 7.78473C15.4507 7.78473 14.3596 8.8438 14.3596 10.1457C14.3596 11.4475 15.4507 12.5066 16.792 12.5066C17.4053 12.5066 17.966 12.2847 18.3942 11.9198C18.7429 12.4651 19.3652 12.8291 20.0737 12.8291C21.163 12.8291 22.0493 11.969 22.0493 10.9117V10.5085C22.0493 7.80601 19.7841 5.60742 16.9997 5.60742C14.2154 5.60742 11.9502 7.80601 11.9502 10.5085V10.6697C11.9502 13.3722 14.2154 15.5708 16.9997 15.5708ZM16.792 11.4135C16.0717 11.4135 15.4858 10.8448 15.4858 10.1457C15.4858 9.44661 16.0718 8.87784 16.792 8.87784C17.5122 8.87784 18.0982 9.44661 18.0982 10.1457C18.0982 10.8448 17.5122 11.4135 16.792 11.4135Z"
      fill="black"
    />
  </g>
  <defs>
    <clipPath id="clip0">
      <rect width="34" height="33" fill="white" />
    </clipPath>
  </defs>
</svg>