<svg
  width="24"
  height="18"
  viewBox="0 0 24 18"
  fill="none"
  xmlns="http://www.w3.org/2000/svg"
>
  <path
    d="M16.3636 7.71429C18.1745 7.71429 19.6255 5.99143 19.6255 3.85714C19.6255 1.72286 18.1745 0 16.3636 0C14.5527 0 13.0909 1.72286 13.0909 3.85714C13.0909 5.99143 14.5527 7.71429 16.3636 7.71429ZM7.63636 7.71429C9.44727 7.71429 10.8982 5.99143 10.8982 3.85714C10.8982 1.72286 9.44727 0 7.63636 0C5.82545 0 4.36364 1.72286 4.36364 3.85714C4.36364 5.99143 5.82545 7.71429 7.63636 7.71429ZM7.63636 10.2857C5.09455 10.2857 0 11.79 0 14.7857V16.7143C0 17.4214 0.490909 18 1.09091 18H14.1818C14.7818 18 15.2727 17.4214 15.2727 16.7143V14.7857C15.2727 11.79 10.1782 10.2857 7.63636 10.2857ZM16.3636 10.2857C16.0473 10.2857 15.6873 10.3114 15.3055 10.35C15.3273 10.3629 15.3382 10.3886 15.3491 10.4014C16.5927 11.4686 17.4545 12.8957 17.4545 14.7857V16.7143C17.4545 17.1643 17.3782 17.6014 17.2582 18H22.9091C23.5091 18 24 17.4214 24 16.7143V14.7857C24 11.79 18.9055 10.2857 16.3636 10.2857Z"
    fill="#292929"
  />
</svg>