<svg
  fill="none"
  viewBox="0 0 35 35"
  xmlns="http://www.w3.org/2000/svg"
>
  <g clipPath="url(#clip0)">
    <path
      d="M30.9795 26.3375C30.881 25.5686 30.4509 24.9056 29.7998 24.5186L22.152 19.9732C21.2153 19.4165 20.027 19.5786 19.2625 20.3677L17.7561 21.9227C17.3553 22.3366 16.7211 22.3732 16.2813 22.0078C15.0937 21.0214 13.9244 19.9358 12.806 18.7812C11.6875 17.6267 10.6359 16.4198 9.68025 15.1939C9.32627 14.7398 9.36169 14.0852 9.76267 13.6714L11.269 12.1164C12.0335 11.3273 12.1907 10.1008 11.6512 9.13374L7.24791 1.23923C6.87297 0.567031 6.23075 0.123187 5.48583 0.0214523C4.74084 -0.0804896 4.00884 0.175989 3.47749 0.724471L1.20771 3.06754C-0.376473 4.7029 -0.401916 7.69425 1.13607 11.4907C2.61493 15.1411 5.37475 19.1596 8.90701 22.806C12.4394 26.4522 16.3323 29.3011 19.8687 30.8277C21.6791 31.6091 23.3003 31.9996 24.6691 31.9995C26.081 31.9995 27.2242 31.584 28.0287 30.7536L30.2985 28.4106C30.8297 27.8621 31.078 27.1065 30.9795 26.3375ZM21.6509 20.8716L29.2987 25.417C29.6769 25.6418 29.9267 26.0269 29.9839 26.4735C30.0319 26.8483 29.9376 27.2173 29.7237 27.5147L19.5599 21.5269L19.9727 21.1008C20.4166 20.6425 21.1069 20.5483 21.6509 20.8716ZM5.35406 1.04923C5.78678 1.10833 6.15978 1.36612 6.37751 1.75654L10.7808 9.65105C11.0942 10.2127 11.0028 10.9252 10.5589 11.3834L10.1797 11.7748L4.34715 1.31774C4.58557 1.13549 4.87073 1.03652 5.168 1.03652C5.22966 1.03652 5.29186 1.04073 5.35406 1.04923ZM27.3184 30.0206C26.0599 31.3197 23.4858 31.2653 20.2562 29.8711C16.8376 28.3954 13.0593 25.6259 9.61725 22.0729C6.17518 18.5198 3.49222 14.6196 2.06264 11.0907C0.711987 7.75694 0.659295 5.09982 1.91788 3.80056L3.6029 2.06112L9.44424 12.534L9.0525 12.9384C8.28823 13.7273 8.22167 14.9764 8.89777 15.8439C9.87589 17.0987 10.9519 18.3336 12.0957 19.5143C13.2397 20.6951 14.436 21.8058 15.6516 22.8155C16.4918 23.5134 17.7018 23.4448 18.4663 22.6557L18.8237 22.2868L29.0017 28.283L27.3184 30.0206Z"
      fill="black"
    />
  </g>
  <defs>
    <clipPath id="clip0">
      <rect width="31" height="32" fill="white" />
    </clipPath>
  </defs>
</svg>
